<svg xmlns="http://www.w3.org/2000/svg" width="94.69" height="79.94" viewBox="0 0 94.69 79.94">
  <defs>
    <style>
      .cls-1 {
        fill: #fff;
      }
    </style>
  </defs>
  <title>Asset 33</title>
  <g id="Layer_2" data-name="Layer 2">
    <g id="icons">
      <path class="cls-1" d="M16.9,21.64c-.28.07-.77.91-1.88,4.26s-3.06,8-2.93,8.31a1.79,1.79,0,0,0,1.74.76c.35-.2.27-.69,1.33-4.11s3.42-8.31,3.48-8.66S17.17,21.5,16.9,21.64ZM79.43,60.69c-.22,0-.78,1.33-.78,1.33.29.27,5.91,3.34,6.11,3.34a2.05,2.05,0,0,0,.78-1A58.47,58.47,0,0,0,79.43,60.69Zm1.25-2.82c-.22,0-.76,1.31-.76,1.31.27.29,7,3.91,7.2,3.91a2.2,2.2,0,0,0,.89-1,75.9,75.9,0,0,0-7.39-4.2Zm.49-1.2c.27.28,7.73,4.19,7.91,4.19a2.13,2.13,0,0,0,.88-1c0-.23-7.82-4.49-8-4.49s-.82,1.32-.82,1.32ZM77.9,49.13c.27.29,9.76,6.18,10,6.18a2.07,2.07,0,0,0,.87-1c0-.23-9.85-6.49-10.07-6.49S77.9,49.13,77.9,49.13Zm.59-3.8c.29.27,9.46,6,9.64,6s.23-1.07.23-1.3-8.89-6-9.16-6-.75,1.28-.75,1.28Zm-1.11-4.85c.27.28,9.07,5.72,9.26,5.72s.24-1.07.24-1.3-8.52-5.74-8.74-5.74-.81,1.28-.81,1.28Zm.43-3.77c.27.28,8.32,5.3,8.5,5.3s.23-1.07.23-1.3-7.8-5.33-8-5.33-.77,1.29-.77,1.29Zm6.55-1.63a62.09,62.09,0,0,0-6.46-4.2c-.2,0-.76,1.33-.76,1.33.27.27,6.7,4.14,6.88,4.14s.29-1.07.29-1.32Zm-1.44-5.44a40.24,40.24,0,0,0-5.14-3.42c-.22,0-.77,1.33-.77,1.33.28.27,5.44,3.3,5.62,3.3s.25-1,.25-1.26Zm-4.87,33.6c-.2,0-.76,1.33-.76,1.33a39.18,39.18,0,0,0,4.27,2.32,2.19,2.19,0,0,0,.92-1A28.09,28.09,0,0,0,78,63.26ZM60.24,29.73a8.08,8.08,0,0,0-8.6,7.5c-.13,5.21.28,10.88,3.72,13.26a7.39,7.39,0,0,0,10.19-2.24,10.18,10.18,0,0,0,.5-.92C68.15,43,69,31.18,60.24,29.73Zm2.52,16.89C61.08,49,58.38,48.9,56,46.81s-1.73-7.64-1.64-8.42,2.55-2.5,4.89-2.09a5.78,5.78,0,0,1,4.7,3.39A10.26,10.26,0,0,1,62.76,46.62ZM32.22,30.21c-8.74,1.43-7.9,13.25-5.81,17.57a7.36,7.36,0,0,0,9.74,3.68,6.66,6.66,0,0,0,1-.51c3.46-2.37,3.87-8.05,3.73-13.26a8.09,8.09,0,0,0-8.58-7.48Zm4.29,17.07c-2.43,2.09-5.12,2.18-6.8-.2a10.16,10.16,0,0,1-1.16-6.93,5.78,5.78,0,0,1,4.69-3.39c2.35-.4,4.8,1.34,4.89,2.09s.82,6.32-1.59,8.43Zm57.76,3.38c-1.2-9-7.82-35.68-17.9-41.91S56.21-.19,55.94,0,55.46,4,56,4.29a30.45,30.45,0,0,0,5.48,2.5C65.33,8.2,65.89,9.4,65.89,9.4a81.28,81.28,0,0,0-17.3-3.05A48.44,48.44,0,0,0,33.88,8.21s4.19-2.52,4.46-2.79S37.7,1.14,36.2.94,12.88,9.24,12.67,9.86c-.57,1.68-4.1,12.57-7.35,24.29S.1,57.06,0,61.64s.93,7.82,7.27,10.8S27.83,80,29,79.94s7-5.21,7.26-6a21.61,21.61,0,0,0-.37-4.75s-.65-.84-5.59-2.51A24.47,24.47,0,0,1,22,61.79s10.89,6.51,22.44,6.6,22.91-5.48,22.91-5.48a26.69,26.69,0,0,1-6.29,3.54,52.6,52.6,0,0,1-8,2.69c-.55.18,0,8.38.47,9.16s2.6,2.61,15.07-.09,18.51-7.07,22-10.23S95.48,59.56,94.27,50.66Zm-2.79,8.55a5.29,5.29,0,0,1-2,4.18c-.84.66-2.67,2.45-12,5.87a121.2,121.2,0,0,1-19,5.31c-1.12.14-1.39.2-1.53,0s-.76-3.28-.41-3.49a44.13,44.13,0,0,0,14.72-8.65c6.22-5.94,6-7.63,5.73-8a1.73,1.73,0,0,0-1.82-.28c-.35.28-6.84,6.36-20.31,8.51s-19,1.41-26.38-1A40,40,0,0,1,17,55.48a6.24,6.24,0,0,0-1.32,2.39A21.7,21.7,0,0,0,22.2,64.4c4.34,2.8,9.5,4.68,9.28,5a24.76,24.76,0,0,1-4,4.14,111.68,111.68,0,0,1-16.33-4.83c-6-2.44-6.83-5.51-7.45-7S4.21,48.23,6.5,39.43,14.9,12,15.83,11.08c.59-.62,15.82-6.43,15.82-6.43s-9.68,8.57-10,9-.56,2.14.37,2.14a2.26,2.26,0,0,0,1.53-.93s7.71-6.33,23.92-6,22.91,5.31,23.35,5a9.49,9.49,0,0,0,1.39-2.23s-1.53-2.68-1.77-3a17.4,17.4,0,0,1,6.79,4.38c3,3,8.66,14.88,11.17,26s3.2,17.68,3,20.09Z"/>
    </g>
  </g>
</svg>
