<svg xmlns="http://www.w3.org/2000/svg" width="81" height="81" viewBox="0 0 81 81">
  <defs>
    <style>
      .cls-1 {
        fill: #fff;
      }
    </style>
  </defs>
  <title>Asset 37</title>
  <g id="Layer_2" data-name="Layer 2">
    <g id="icons">
      <path class="cls-1" d="M40.5,7.3c10.81,0,12.09,0,16.37.23a22.29,22.29,0,0,1,7.52,1.4A12.38,12.38,0,0,1,69,12a12.38,12.38,0,0,1,3,4.65,22.29,22.29,0,0,1,1.4,7.52c.19,4.28.23,5.56.23,16.37s0,12.09-.23,16.37a22.29,22.29,0,0,1-1.4,7.52,13.45,13.45,0,0,1-7.68,7.68,22.29,22.29,0,0,1-7.52,1.4c-4.27.19-5.56.23-16.37.23s-12.1,0-16.37-.23a22.29,22.29,0,0,1-7.52-1.4A12.38,12.38,0,0,1,12,69a12.38,12.38,0,0,1-3-4.65,22.29,22.29,0,0,1-1.4-7.52c-.19-4.28-.23-5.56-.23-16.37s0-12.09.23-16.37a22.29,22.29,0,0,1,1.4-7.52A12.38,12.38,0,0,1,12,12a12.38,12.38,0,0,1,4.65-3,22.29,22.29,0,0,1,7.52-1.4c4.28-.19,5.56-.23,16.37-.23m0-7.3c-11,0-12.38.05-16.7.24A29.84,29.84,0,0,0,14,2.13,19.81,19.81,0,0,0,6.8,6.8,19.81,19.81,0,0,0,2.13,14,29.58,29.58,0,0,0,.24,23.8C.05,28.12,0,29.5,0,40.5S.05,52.88.24,57.2A29.58,29.58,0,0,0,2.13,67,19.81,19.81,0,0,0,6.8,74.2,19.81,19.81,0,0,0,14,78.87a29.58,29.58,0,0,0,9.83,1.89c4.32.19,5.7.24,16.7.24s12.38,0,16.7-.24A29.58,29.58,0,0,0,67,78.87,20.71,20.71,0,0,0,78.87,67a29.84,29.84,0,0,0,1.89-9.83c.19-4.32.24-5.7.24-16.7s0-12.38-.24-16.7A29.84,29.84,0,0,0,78.87,14,19.81,19.81,0,0,0,74.2,6.8,19.81,19.81,0,0,0,67,2.13,29.84,29.84,0,0,0,57.2.24C52.88.05,51.5,0,40.5,0Zm0,19.7A20.8,20.8,0,1,0,61.3,40.5,20.8,20.8,0,0,0,40.5,19.7Zm0,34.3A13.5,13.5,0,1,1,54,40.5,13.49,13.49,0,0,1,40.5,54ZM67,18.88A4.86,4.86,0,1,1,62.12,14,4.86,4.86,0,0,1,67,18.88Z"/>
    </g>
  </g>
</svg>
