<svg xmlns="http://www.w3.org/2000/svg" width="93.98" height="76.37" viewBox="0 0 93.98 76.37">
  <defs>
    <style>
      .cls-1 {
        fill: #fff;
      }
    </style>
  </defs>
  <title>Asset 32</title>
  <g id="Layer_2" data-name="Layer 2">
    <g id="icons">
      <path class="cls-1" d="M94,9a38.38,38.38,0,0,1-11.07,3A19.36,19.36,0,0,0,91.38,1.41,38.67,38.67,0,0,1,79.14,6.09,19.29,19.29,0,0,0,46.29,23.67,54.75,54.75,0,0,1,6.54,3.53a19.3,19.3,0,0,0,6,25.74,19.24,19.24,0,0,1-8.73-2.41v.24A19.3,19.3,0,0,0,19.24,46a19.28,19.28,0,0,1-5.08.67,19.77,19.77,0,0,1-3.63-.34,19.32,19.32,0,0,0,18,13.39A38.71,38.71,0,0,1,4.6,68,38.79,38.79,0,0,1,0,67.71a54.61,54.61,0,0,0,29.56,8.66C65,76.37,84.41,47,84.41,21.52c0-.84,0-1.67,0-2.5A38.85,38.85,0,0,0,94,9Z"/>
    </g>
  </g>
</svg>
