<svg xmlns="http://www.w3.org/2000/svg" width="111.07" height="77.75" viewBox="0 0 111.07 77.75">
  <defs>
    <style>
      .cls-1 {
        fill: #fff;
      }
    </style>
  </defs>
  <title>Asset 31</title>
  <g id="Layer_2" data-name="Layer 2">
    <g id="icons">
      <path class="cls-1" d="M108.75,12.14a13.92,13.92,0,0,0-9.82-9.82C90.26,0,55.53,0,55.53,0S20.8,0,12.14,2.32a13.92,13.92,0,0,0-9.82,9.82C0,20.8,0,38.87,0,38.87S0,57,2.32,65.61a13.92,13.92,0,0,0,9.82,9.82c8.66,2.32,43.39,2.32,43.39,2.32s34.73,0,43.4-2.32a13.92,13.92,0,0,0,9.82-9.82c2.32-8.66,2.32-26.74,2.32-26.74s0-18.07-2.32-26.73ZM44.43,55.53V22.21L73.28,38.87,44.43,55.53Z"/>
    </g>
  </g>
</svg>
