<svg xmlns="http://www.w3.org/2000/svg" width="75.08" height="75.07" viewBox="0 0 75.08 75.07">
  <defs>
    <style>
      .cls-1 {
        fill: #fff;
        fill-rule: evenodd;
      }
    </style>
  </defs>
  <title>Asset 36</title>
  <g id="Layer_2" data-name="Layer 2">
    <g id="icons">
      <path class="cls-1" d="M37.54,0C16.81,0,0,17.23,0,38.49A38.42,38.42,0,0,0,25.67,75c1.88.35,2.57-.84,2.57-1.86s0-3.33,0-6.55c-10.44,2.33-12.65-5.16-12.65-5.16-1.71-4.44-4.18-5.63-4.18-5.63-3.4-2.4.25-2.35.25-2.35,3.77.27,5.75,4,5.75,4,3.35,5.88,8.78,4.19,10.93,3.2a8.23,8.23,0,0,1,2.38-5.14c-8.33-1-17.1-4.28-17.1-19a15.06,15.06,0,0,1,3.86-10.33A14.11,14.11,0,0,1,17.8,16s3.15-1,10.32,3.94a34.89,34.89,0,0,1,18.8,0C54.1,14.92,57.23,16,57.23,16a14.17,14.17,0,0,1,.37,10.19,15.13,15.13,0,0,1,3.85,10.33c0,14.78-8.78,18-17.14,19,1.34,1.19,2.55,3.54,2.55,7.13,0,5.14,0,9.3,0,10.55,0,1,.67,2.23,2.58,1.85A38.35,38.35,0,0,0,75.08,38.49C75.08,17.23,58.27,0,37.54,0Z"/>
    </g>
  </g>
</svg>
