<svg xmlns="http://www.w3.org/2000/svg" width="80.84" height="77.25" viewBox="0 0 80.84 77.25">
  <defs>
    <style>
      .cls-1 {
        fill: #fff;
      }
    </style>
  </defs>
  <title>Asset 35</title>
  <g id="Layer_2" data-name="Layer 2">
    <g id="icons">
      <path id="LinkedIn" class="cls-1" d="M80.84,47.35V77.24H63.51V49.36c0-7-2.5-11.79-8.77-11.79a9.46,9.46,0,0,0-8.89,6.34,11.79,11.79,0,0,0-.59,4.23V77.25H27.93s.23-47.23,0-52.12H45.26v7.39l-.11.17h.11v-.17c2.31-3.55,6.41-8.61,15.62-8.61C72.29,23.89,80.84,31.35,80.84,47.35ZM9.81,0C3.87,0,0,3.89,0,9s3.76,9,9.59,9H9.7c6.05,0,9.81-4,9.81-9S15.73,0,9.81,0ZM1,77.25H18.36V25.11H1Z"/>
    </g>
  </g>
</svg>
