<svg id="Layer_1" data-name="Layer 1" xmlns="http://www.w3.org/2000/svg" viewBox="0 0 400 400"><defs><style>.cls-1{fill:#1a237e;}.cls-2{fill:#ef4f45;}.cls-3{fill:#fff;}</style></defs><g id="Layer0_0_FILL" data-name="Layer0 0 FILL"><path class="cls-1" d="M281.33,274a14.14,14.14,0,0,0-7.16,1.62,13.61,13.61,0,0,0-4.85,4.16V262.18H257.76v50.38h11.56V292a8.21,8.21,0,0,1,2.08-6,6.94,6.94,0,0,1,5.31-2.08A6.65,6.65,0,0,1,282,286a8.29,8.29,0,0,1,2.08,6v20.57h11.55V290.42c0-5.09-1.38-9-4.16-12A12.74,12.74,0,0,0,281.33,274m45.07,26.11c-1.15,2.32-3.23,3.47-6.24,3.47a7.4,7.4,0,0,1-4.85-1.85c-1.39-1.15-2.08-3-2.54-5.54h26.58c0-1.16.23-2.32.23-3.24,0-5.78-1.85-10.4-5.32-13.64-3.47-3.46-8.09-5.08-13.64-5.08-5.77,0-10.4,1.85-13.86,5.31-3.7,3.47-5.32,8.32-5.32,14.33s1.85,10.87,5.32,14.33,8.09,5.32,13.86,5.32a19.73,19.73,0,0,0,12-3.93,17.44,17.44,0,0,0,6.47-9.24H326.4m-5.78-17.11a7.68,7.68,0,0,1,5.09,1.85,6,6,0,0,1,2.08,4.85h-15a8.21,8.21,0,0,1,2.54-4.85,9.27,9.27,0,0,1,5.31-1.85M365,274.66h-6.47v-.46c0-2.08.46-3.24,1.39-4.16s2.54-1.16,4.85-.93v-9.93c-5.78-.24-10.4.69-13.64,3.23-3,2.31-4.62,6-4.62,11.09v1.16h-4.16v9.48h4.16v28.42h12V284.14H365v-9.48M72.17,271.42c-4.63-4.39-10.87-6.7-18.49-6.7H35.42v47.84H53.68c7.62,0,13.63-2.31,18.49-6.7,4.62-4.39,6.7-10.17,6.7-17.33s-2.31-12.71-6.7-17.11m-19.65,3.24c4.62,0,8.09,1.16,10.4,3.7a13.58,13.58,0,0,1,3.93,10.17c0,4.39-1.15,7.86-3.93,10.4-2.31,2.54-5.78,3.7-10.4,3.7H47.21v-28h5.31m71.19,37.9v-37.9h-12V280a11.38,11.38,0,0,0-4.62-4.16,14.2,14.2,0,0,0-7.17-1.62,15,15,0,0,0-11.79,5.31c-3.46,3.47-5.08,8.32-5.08,14.1s1.62,10.63,5.08,14.33a15,15,0,0,0,11.79,5.32,15.3,15.3,0,0,0,7.4-1.85,11.44,11.44,0,0,0,4.62-4.16v5.55h11.79m-20.11-9.94a7.86,7.86,0,0,1-6-2.31,10.38,10.38,0,0,1-2.57-7.1,9.44,9.44,0,0,1,2.54-7,7.86,7.86,0,0,1,6-2.31,7.13,7.13,0,0,1,5.78,2.54,9.44,9.44,0,0,1,2.54,6.93,10.39,10.39,0,0,1-2.54,7.17,8.5,8.5,0,0,1-5.78,2.08m49.69-28.2h-7.86v-9.48H133.65v9.48H129v9.48h4.63v15.31c0,4.62,1.15,8.09,3.92,10.4q3.48,2.78,9.71,2.77h6v-9.93H149.1a4.82,4.82,0,0,1-2.77-.7,3.71,3.71,0,0,1-.93-2.54V283.91h7.86v-9.25m50.62,13.87a24.41,24.41,0,0,0,6.7,17.56c4.39,4.63,10.17,6.71,17.57,6.71a22.51,22.51,0,0,0,23.11-16.64H238.11a10.08,10.08,0,0,1-4.16,4.62,11.84,11.84,0,0,1-5.77,1.38c-3.7,0-6.71-1.15-8.79-3.69a16,16,0,0,1,0-19.88c2.08-2.54,5.09-3.7,8.79-3.7a9.4,9.4,0,0,1,5.77,1.62,10.08,10.08,0,0,1,4.16,4.62h13.18A21.08,21.08,0,0,0,243,268.88a24.48,24.48,0,0,0-14.79-4.39c-7.17,0-13,2.31-17.57,6.7-4.39,4.4-6.7,10.17-6.7,17.34m-22.65-12.94a15.81,15.81,0,0,0-7.4-1.62,15.47,15.47,0,0,0-12,5.31c-3.23,3.47-5.08,8.32-5.08,14.1s1.62,10.63,5.08,14.33a15.81,15.81,0,0,0,12,5.32,16,16,0,0,0,7.4-1.85,10.13,10.13,0,0,0,4.62-4.16v5.54h12v-37.9H185.65V280a13.35,13.35,0,0,0-4.39-4.39m1.85,11.09a9.48,9.48,0,0,1,2.54,6.93,10.47,10.47,0,0,1-2.54,7.17,8.17,8.17,0,0,1-6,2.31,7.67,7.67,0,0,1-5.78-2.31,10.39,10.39,0,0,1-2.54-7.17,9.44,9.44,0,0,1,2.54-6.93,7.68,7.68,0,0,1,5.77-2.26,6.74,6.74,0,0,1,6,2.26Z"/><path class="cls-2" d="M258.91,238.14v-24H139v24H259m-1-99.38a57.45,57.45,0,0,0-7.16-19.88,61.12,61.12,0,0,0-13-15.94,54.6,54.6,0,0,0-18-10.64,61.31,61.31,0,0,0-54.77,6.48,58.41,58.41,0,0,0-22.19,27.27A40.94,40.94,0,0,0,132,124.42a39.06,39.06,0,0,0-16.18,3.47,40.34,40.34,0,0,0-13.41,9,44.21,44.21,0,0,0-9,13.41,60.37,60.37,0,0,0-2.54,16.18,40.26,40.26,0,0,0,3.46,16.4,42.77,42.77,0,0,0,9.25,13.18,40.19,40.19,0,0,0,13.41,9,43.09,43.09,0,0,0,16.4,3.24H271.16A35.81,35.81,0,0,0,284.11,206a31.93,31.93,0,0,0,12-7.4A36.37,36.37,0,0,0,304,187.06a37.85,37.85,0,0,0,3.24-13.4,42,42,0,0,0-2.31-14.1,38.3,38.3,0,0,0-7.63-12,36.29,36.29,0,0,0-11.3-8.14,34.44,34.44,0,0,0-13.41-3A30.77,30.77,0,0,0,258,138.76m7.4,22.88a11.33,11.33,0,0,1,5.31-1.39,12.25,12.25,0,0,1,8.55,3.47,12.43,12.43,0,0,1,3.47,8.78,11.39,11.39,0,0,1-3.47,8.32,12.21,12.21,0,0,1-8.55,3.47,11.81,11.81,0,0,1-8.55-3.47,11.35,11.35,0,0,1-3.47-8.32h0l-40.21-13.4a22.73,22.73,0,0,1-30.77,9.34c-.47-.25-.92-.51-1.36-.79a21.27,21.27,0,0,1-8.09-9.48l-31.89,8.33a12.24,12.24,0,0,1-3.93,9.24A12.82,12.82,0,0,1,133,179.9a13.28,13.28,0,0,1-9.7-4.16,13.05,13.05,0,0,1-3.93-9.48,14,14,0,0,1,3.93-9.7,13.59,13.59,0,0,1,9.7-3.93,14,14,0,0,1,6.71,1.85,12.64,12.64,0,0,1,4.62,4.62l32.12-8.78V148a21.09,21.09,0,0,1,6.48-15.72,22.32,22.32,0,0,1,31.56-.33l.33.33A21.12,21.12,0,0,1,221.25,148a19.84,19.84,0,0,1-.23,3.69l40.22,13.41a9.87,9.87,0,0,1,4.15-3.47Z"/><path class="cls-3" d="M270.7,160a10.74,10.74,0,0,0-5.31,1.39,14.79,14.79,0,0,0-4.16,3.47L221,151.47a18.32,18.32,0,0,0,.23-3.7,21.12,21.12,0,0,0-6.47-15.71,22.32,22.32,0,0,0-31.56-.33l-.33.33a21.07,21.07,0,0,0-6.48,15.71v2.32l-32.12,8.78a12.64,12.64,0,0,0-4.62-4.62,13.54,13.54,0,0,0-16.41,21.26,13.12,13.12,0,0,0,18.56.62c.21-.2.42-.41.62-.62a12.57,12.57,0,0,0,3.93-9.25l32.12-8.55a21.37,21.37,0,0,0,8.09,9.48,22.85,22.85,0,0,0,12.25,3.47,23.75,23.75,0,0,0,11.8-3.24,21.21,21.21,0,0,0,8.09-8.78L258.91,172h0a11.35,11.35,0,0,0,3.47,8.32,11.49,11.49,0,0,0,8.55,3.47,12.25,12.25,0,0,0,8.55-3.47A11.3,11.3,0,0,0,283,172a12.75,12.75,0,0,0-3.47-8.78A13.71,13.71,0,0,0,270.7,160Z"/></g></svg>